<svg xmlns="http://www.w3.org/2000/svg" xmlns:xlink="http://www.w3.org/1999/xlink" data-name="Layer 1" viewBox="0 0 64 64" id="LightBulb"><defs><linearGradient id="a" x1="-8.299" x2="94.679" y1="-32.299" y2="70.679" gradientUnits="userSpaceOnUse"><stop offset="0" stop-color="#53d86a" class="stopColor9cecfb svgShape"></stop><stop offset=".512" stop-color="#fe9526" class="stopColor65c7f7 svgShape"></stop><stop offset="1" stop-color="#167ffc" class="stopColor0052d4 svgShape"></stop></linearGradient><linearGradient id="b" x1="-13.116" x2="89.862" y1="-27.481" y2="75.497" xlink:href="#a"></linearGradient><linearGradient id="c" x1="-18.799" x2="84.179" y1="-21.799" y2="81.179" xlink:href="#a"></linearGradient><linearGradient id="d" x1="-24.481" x2="78.497" y1="-16.116" y2="86.862" xlink:href="#a"></linearGradient><linearGradient id="e" x1="-29.299" x2="73.679" y1="-11.299" y2="91.679" xlink:href="#a"></linearGradient><linearGradient id="f" x1="-32.517" x2="70.46" y1="-8.08" y2="94.898" xlink:href="#a"></linearGradient><linearGradient id="g" x1="-13.116" x2="89.862" y1="-27.481" y2="75.497" xlink:href="#a"></linearGradient><linearGradient id="h" x1="-5.08" x2="97.898" y1="-35.517" y2="67.46" xlink:href="#a"></linearGradient><linearGradient id="i" x1="-3.949" x2="99.029" y1="-36.648" y2="66.33" xlink:href="#a"></linearGradient><linearGradient id="j" x1="-5.08" x2="97.898" y1="-35.517" y2="67.46" xlink:href="#a"></linearGradient><linearGradient id="k" x1="-21.159" x2="81.819" y1="-19.438" y2="83.54" xlink:href="#a"></linearGradient></defs><path fill="url(#a)" d="M32,11a1,1,0,0,0,1-1V6a1,1,0,0,0-2,0v4A1,1,0,0,0,32,11Z"></path><path fill="url(#b)" d="M23.8052,11.8291a1,1,0,1,0,1.8476-.7656L24.1221,7.3682a1,1,0,1,0-1.8477.7656Z"></path><path fill="url(#c)" d="M17.8579,16.272a1,1,0,0,0,1.4141-1.4141l-2.8286-2.8286a1,1,0,0,0-1.4141,1.4141Z"></path><path fill="url(#d)" d="M14.8291,20.8052l-3.6953-1.5308a1,1,0,1,0-.7656,1.8477l3.6953,1.5307a1,1,0,1,0,.7656-1.8476Z"></path><path fill="url(#e)" d="M14,29a1,1,0,0,0-1-1H9a1,1,0,0,0,0,2h4A1,1,0,0,0,14,29Z"></path><path fill="url(#f)" d="M14.0635,35.3472l-3.6953,1.5307a1,1,0,1,0,.7656,1.8477l3.6953-1.5308a1,1,0,1,0-.7656-1.8476Z"></path><path fill="url(#g)" d="M53.6318,36.8779l-3.6953-1.5307a1,1,0,1,0-.7656,1.8476l3.6953,1.5308a1,1,0,1,0,.7656-1.8477Z"></path><path fill="url(#a)" d="M55,28H51a1,1,0,0,0,0,2h4a1,1,0,0,0,0-2Z"></path><path fill="url(#h)" d="M48.5532,21.73a.9993.9993,0,0,0,1.3833.9228l3.6953-1.5307a1,1,0,1,0-.7656-1.8477l-3.6953,1.5308A1.0007,1.0007,0,0,0,48.5532,21.73Z"></path><path fill="url(#i)" d="M45.4351,16.5649a.9967.9967,0,0,0,.707-.2929l2.8286-2.8286a1,1,0,0,0-1.4141-1.4141L44.728,14.8579a1,1,0,0,0,.7071,1.707Z"></path><path fill="url(#j)" d="M38.8882,12.37a.9982.9982,0,0,0,1.3066-.541l1.5308-3.6953a1,1,0,1,0-1.8477-.7656l-1.5307,3.6953a.9982.9982,0,0,0,.541,1.3066Z"></path><path fill="url(#k)" d="M31.2471,13.0171A15.9893,15.9893,0,0,0,19.63,39.1333a11.0475,11.0475,0,0,1,2.66,7.03V46.84A2.9952,2.9952,0,0,0,24,49.5366V50.84a3.0033,3.0033,0,0,0,3,3V54a5,5,0,0,0,10,0v-.16a3.0033,3.0033,0,0,0,3-3V49.5367A2.9955,2.9955,0,0,0,41.71,46.84v-.6782a10.9872,10.9872,0,0,1,2.6445-7.01A15.995,15.995,0,0,0,31.2471,13.0171ZM35,54a3,3,0,0,1-6,0v-.16h6Zm2-2.16H27a1.0013,1.0013,0,0,1-1-1v-1H38v1A1.0013,1.0013,0,0,1,37,51.84ZM29,35H28a1,1,0,1,1,1-1Zm2,2h2V47.84H31Zm11.81.88a13.1382,13.1382,0,0,0-3.1,8.2817V46.84a1.0013,1.0013,0,0,1-1,1H35V37h1a3,3,0,1,0-3-3v1H31V34a3,3,0,1,0-3,3h1V47.84H25.29a1.0013,1.0013,0,0,1-1-1v-.6762a13.0219,13.0219,0,0,0-3.1142-8.3,14,14,0,1,1,21.6347.0161ZM35,35V34a1,1,0,1,1,1,1Z"></path></svg>