<svg xmlns="http://www.w3.org/2000/svg" viewBox="0 0 64 64" id="LightBulb"><path d="M38 53v2a4 4 0 0 1-4 4h-4a4 4 0 0 1-4-4v-2zm2-4v.55A1.45 1.45 0 0 1 38.55 51h-13.1A1.45 1.45 0 0 1 24 49.55V49zM24 45h16v2H24zM33.5 32.2V43h-3V32.2l1.5-1 1.5 1z" fill="#595bd4" class="color000000 svgShape"></path><path d="M43.34 9.33a16.85 16.85 0 0 0-13.28-4.22 17 17 0 0 0-10.22 28.75A14.46 14.46 0 0 1 24 43h4.5V32.87l-3.95-2a1 1 0 0 1 .9-1.78l3.48 1.74 2-1.31a2 2 0 0 1 2.22 0l2 1.31 3.48-1.74a1 1 0 1 1 .9 1.78l-4 2V43H40a14.92 14.92 0 0 1 4.22-9.25A16.84 16.84 0 0 0 49 22a17 17 0 0 0-5.66-12.67ZM32 27a2 2 0 1 1 2-2 2 2 0 0 1-2 2Zm4.77-5.37A1 1 0 0 1 36 22a.94.94 0 0 1-.63-.23l-.21-.17a5 5 0 0 0-6.32 0l-.21.17a1 1 0 1 1-1.26-1.54l.21-.18a7 7 0 0 1 8.84 0l.21.18a1 1 0 0 1 .14 1.4Zm2.06-4.08A1 1 0 0 1 38 18a.94.94 0 0 1-.55-.17 9.83 9.83 0 0 0-10.9 0 1 1 0 1 1-1.1-1.66 11.75 11.75 0 0 1 13.1 0 1 1 0 0 1 .28 1.38Zm2-4A1 1 0 0 1 40 14a1 1 0 0 1-.53-.15l-.58-.36a13.06 13.06 0 0 0-13.78 0l-.58.36a1 1 0 0 1-1.06-1.7l.58-.36a15.08 15.08 0 0 1 15.9 0l.58.36a1 1 0 0 1 .32 1.38Z" fill="#595bd4" class="color000000 svgShape"></path></svg>